<svg xmlns="http://www.w3.org/2000/svg" viewBox="0 0 160 160" version="1.1" id="svg_null"><g id="root" stroke="none" stroke-width="1" fill="none" fill-rule="evenodd"><rect id="background.accent" fill="#59748c" x="0" y="0" width="160" height="160"></rect><path d="M60 102l40 0l0 8l-40 0l0 -8zm0 10l40 0l0 6l-40 0l0 -6zm0 8l40 0l0 4l-40 0l0 -4zm0 6l40 0l0 2l-40 0l0 -2zm0 -100l40 0l0 74l-40 0l0 -74z" id="shape.secondary" fill="#354d62"></path><g id="group" transform="translate(16.000000, 74.000000)"><rect id="Rectangle-14" x="0" y="0" width="128" height="22"></rect><text id="headerText.primary" font-family="Fira Mono" font-size="18" font-weight="700" letter-spacing=".81" fill="#d7f2f7" data-text-alignment="C" font-style="normal"><tspan x="17.9765625" y="18">Code Gen</tspan></text></g><rect id="icon.primary" x="68" y="32" width="24" height="24" display="none" fill="#d7f2f7"></rect><svg xmlns="http://www.w3.org/2000/svg" xmlns:xlink="http://www.w3.org/1999/xlink" viewBox="0 0 50 50" version="1.1" fill="#d7f2f7" id="svg_icon.primary" x="68" y="32" width="24" height="24"><g id="surface1" fill="#d7f2f7"><path style=" " d="M 1 0 C 0.449219 0 0 0.449219 0 1 L 0 17 C 0 17.550781 0.449219 18 1 18 L 8 18 L 8 32 L 1 32 C 0.449219 32 0 32.445313 0 33 L 0 49 C 0 49.554688 0.449219 50 1 50 L 17 50 C 17.550781 50 18 49.554688 18 49 L 18 42 L 32 42 L 32 49 C 32 49.554688 32.445313 50 33 50 L 49 50 C 49.554688 50 50 49.554688 50 49 L 50 33 C 50 32.445313 49.554688 32 49 32 L 42 32 L 42 18 L 49 18 C 49.554688 18 50 17.550781 50 17 L 50 1 C 50 0.449219 49.554688 0 49 0 L 33 0 C 32.445313 0 32 0.449219 32 1 L 32 8 L 18 8 L 18 1 C 18 0.449219 17.550781 0 17 0 Z M 18 10 L 32 10 L 32 17 C 32 17.550781 32.445313 18 33 18 L 40 18 L 40 32 L 33 32 C 32.445313 32 32 32.445313 32 33 L 32 40 L 18 40 L 18 33 C 18 32.445313 17.550781 32 17 32 L 10 32 L 10 18 L 17 18 C 17.550781 18 18 17.550781 18 17 Z M 4.59375 34 L 7.40625 34 L 2 39.40625 L 2 36.59375 Z M 9.59375 34 L 12.375 34 C 12.347656 34.035156 12.34375 34.0625 12.3125 34.09375 L 2 44.40625 L 2 41.59375 Z M 14.59375 34 L 16 34 L 16 35.40625 L 3.40625 48 L 2 48 L 2 46.59375 Z M 16 37.65625 L 16 40.40625 L 8.40625 48 L 5.625 48 C 5.652344 47.964844 5.65625 47.9375 5.6875 47.90625 L 15.78125 37.78125 C 15.84375 37.71875 15.929688 37.699219 16 37.65625 Z M 16 42.59375 L 16 45.40625 L 13.40625 48 L 10.625 48 C 10.652344 47.964844 10.65625 47.9375 10.6875 47.90625 Z " fill="#d7f2f7"></path></g></svg></g></svg>