<svg width="160" height="160" viewBox="0 0 160 160" fill="none" xmlns="http://www.w3.org/2000/svg">
<path d="M160 0H0V160H160V0Z" fill="#59748C"/>
<path fill-rule="evenodd" clip-rule="evenodd" d="M60 102H100V110H60V102ZM60 112H100V118H60V112ZM60 120H100V124H60V120ZM60 126H100V128H60V126ZM60 26H100V100H60V26Z" fill="#354D62"/>
<path d="M46.272 79.904C45.216 79.904 44.31 80.144 43.554 80.624C42.798 81.092 42.216 81.752 41.808 82.604C41.412 83.444 41.214 84.422 41.214 85.538C41.214 86.69 41.394 87.698 41.754 88.562C42.114 89.414 42.654 90.074 43.374 90.542C44.106 91.01 45.012 91.244 46.092 91.244C46.716 91.244 47.286 91.196 47.802 91.1C48.33 91.004 48.828 90.878 49.296 90.722V91.64C48.852 91.808 48.366 91.94 47.838 92.036C47.31 92.132 46.692 92.18 45.984 92.18C44.688 92.18 43.602 91.904 42.726 91.352C41.862 90.8 41.208 90.026 40.764 89.03C40.332 88.034 40.116 86.87 40.116 85.538C40.116 84.266 40.356 83.138 40.836 82.154C41.328 81.158 42.03 80.378 42.942 79.814C43.866 79.25 44.982 78.968 46.29 78.968C47.538 78.968 48.66 79.202 49.656 79.67L49.242 80.588C48.318 80.132 47.328 79.904 46.272 79.904ZM59.8088 87.194C59.8088 88.202 59.6408 89.078 59.3048 89.822C58.9808 90.566 58.4948 91.148 57.8468 91.568C57.2108 91.976 56.4308 92.18 55.5068 92.18C54.6188 92.18 53.8568 91.976 53.2208 91.568C52.5848 91.16 52.0928 90.584 51.7448 89.84C51.4088 89.084 51.2408 88.202 51.2408 87.194C51.2408 85.646 51.6248 84.434 52.3928 83.558C53.1608 82.682 54.2228 82.244 55.5788 82.244C56.4908 82.244 57.2588 82.454 57.8828 82.874C58.5188 83.282 58.9988 83.858 59.3228 84.602C59.6468 85.346 59.8088 86.21 59.8088 87.194ZM52.3028 87.194C52.3028 88.43 52.5608 89.426 53.0768 90.182C53.6048 90.926 54.4208 91.298 55.5248 91.298C56.6408 91.298 57.4568 90.92 57.9728 90.164C58.4888 89.408 58.7468 88.418 58.7468 87.194C58.7468 86.402 58.6388 85.7 58.4228 85.088C58.2068 84.476 57.8648 83.996 57.3968 83.648C56.9288 83.3 56.3168 83.126 55.5608 83.126C54.4808 83.126 53.6648 83.486 53.1128 84.206C52.5728 84.926 52.3028 85.922 52.3028 87.194ZM65.854 92.18C64.57 92.18 63.58 91.772 62.884 90.956C62.2 90.128 61.858 88.91 61.858 87.302C61.858 85.658 62.218 84.404 62.938 83.54C63.658 82.676 64.66 82.244 65.944 82.244C66.748 82.244 67.396 82.424 67.888 82.784C68.392 83.132 68.77 83.558 69.022 84.062H69.094C69.082 83.786 69.064 83.48 69.04 83.144C69.028 82.796 69.022 82.478 69.022 82.19V78.32H70.048V92H69.22L69.076 90.326H69.022C68.77 90.842 68.392 91.28 67.888 91.64C67.384 92 66.706 92.18 65.854 92.18ZM65.98 91.298C67.084 91.298 67.87 90.962 68.338 90.29C68.806 89.618 69.04 88.646 69.04 87.374V87.212C69.04 85.892 68.806 84.884 68.338 84.188C67.882 83.48 67.12 83.126 66.052 83.126C65.02 83.126 64.24 83.492 63.712 84.224C63.184 84.944 62.92 85.976 62.92 87.32C62.92 88.616 63.172 89.606 63.676 90.29C64.18 90.962 64.948 91.298 65.98 91.298ZM76.8274 82.244C77.6434 82.244 78.3214 82.436 78.8614 82.82C79.4134 83.192 79.8274 83.708 80.1034 84.368C80.3914 85.028 80.5354 85.784 80.5354 86.636V87.338H73.6954C73.6954 88.61 73.9894 89.588 74.5774 90.272C75.1774 90.944 76.0294 91.28 77.1334 91.28C77.7214 91.28 78.2374 91.232 78.6814 91.136C79.1254 91.028 79.6114 90.86 80.1394 90.632V91.568C79.6594 91.784 79.1854 91.94 78.7174 92.036C78.2494 92.132 77.7094 92.18 77.0974 92.18C75.6574 92.18 74.5534 91.742 73.7854 90.866C73.0174 89.99 72.6334 88.796 72.6334 87.284C72.6334 86.312 72.7954 85.448 73.1194 84.692C73.4554 83.936 73.9354 83.342 74.5594 82.91C75.1834 82.466 75.9394 82.244 76.8274 82.244ZM76.8094 83.108C75.9334 83.108 75.2194 83.402 74.6674 83.99C74.1274 84.578 73.8154 85.412 73.7314 86.492H79.4734C79.4734 85.484 79.2514 84.668 78.8074 84.044C78.3754 83.42 77.7094 83.108 76.8094 83.108ZM93.1808 85.448H97.8608V91.424C96.6008 91.928 95.1788 92.18 93.5948 92.18C91.5548 92.18 90.0008 91.598 88.9328 90.434C87.8648 89.27 87.3308 87.656 87.3308 85.592C87.3308 84.284 87.5888 83.132 88.1048 82.136C88.6328 81.14 89.3888 80.36 90.3728 79.796C91.3568 79.232 92.5388 78.95 93.9188 78.95C95.3108 78.95 96.5708 79.208 97.6988 79.724L97.2848 80.642C96.7448 80.402 96.1868 80.216 95.6108 80.084C95.0348 79.952 94.4528 79.886 93.8648 79.886C92.7248 79.886 91.7468 80.126 90.9308 80.606C90.1268 81.086 89.5088 81.752 89.0768 82.604C88.6448 83.456 88.4288 84.446 88.4288 85.574C88.4288 87.434 88.8848 88.844 89.7968 89.804C90.7088 90.764 92.0468 91.244 93.8108 91.244C94.4348 91.244 94.9928 91.202 95.4848 91.118C95.9768 91.034 96.4208 90.92 96.8168 90.776V86.402H93.1808V85.448ZM104.46 82.244C105.276 82.244 105.954 82.436 106.494 82.82C107.046 83.192 107.46 83.708 107.736 84.368C108.024 85.028 108.168 85.784 108.168 86.636V87.338H101.328C101.328 88.61 101.622 89.588 102.21 90.272C102.81 90.944 103.662 91.28 104.766 91.28C105.354 91.28 105.87 91.232 106.314 91.136C106.758 91.028 107.244 90.86 107.772 90.632V91.568C107.292 91.784 106.818 91.94 106.35 92.036C105.882 92.132 105.342 92.18 104.73 92.18C103.29 92.18 102.186 91.742 101.418 90.866C100.65 89.99 100.266 88.796 100.266 87.284C100.266 86.312 100.428 85.448 100.752 84.692C101.088 83.936 101.568 83.342 102.192 82.91C102.816 82.466 103.572 82.244 104.46 82.244ZM104.442 83.108C103.566 83.108 102.852 83.402 102.3 83.99C101.76 84.578 101.448 85.412 101.364 86.492H107.106C107.106 85.484 106.884 84.668 106.44 84.044C106.008 83.42 105.342 83.108 104.442 83.108ZM115.04 82.244C116.132 82.244 116.966 82.526 117.542 83.09C118.118 83.654 118.406 84.536 118.406 85.736V92H117.398V85.808C117.398 84.896 117.188 84.224 116.768 83.792C116.348 83.348 115.736 83.126 114.932 83.126C112.832 83.126 111.782 84.344 111.782 86.78V92H110.756V82.424H111.584L111.728 84.08H111.8C112.052 83.552 112.454 83.114 113.006 82.766C113.558 82.418 114.236 82.244 115.04 82.244Z" fill="#D7F2F7"/>
<path fill-rule="evenodd" clip-rule="evenodd" d="M68.48 33C68.2156 33 68 33.2156 68 33.48V41.16C68 41.4244 68.2156 41.64 68.48 41.64H71.84V48.36H68.48C68.2156 48.36 68 48.5737 68 48.84V56.52C68 56.7862 68.2156 57 68.48 57H76.16C76.4244 57 76.64 56.7862 76.64 56.52V53.16H83.36V56.52C83.36 56.7862 83.5737 57 83.84 57H91.52C91.7862 57 92 56.7862 92 56.52V48.84C92 48.5737 91.7862 48.36 91.52 48.36H88.16V41.64H91.52C91.7862 41.64 92 41.4244 92 41.16V33.48C92 33.2156 91.7862 33 91.52 33H83.84C83.5737 33 83.36 33.2156 83.36 33.48V36.84H76.64V33.48C76.64 33.2156 76.4244 33 76.16 33H68.48ZM76.64 37.8H83.36V41.16C83.36 41.4244 83.5737 41.64 83.84 41.64H87.2V48.36H83.84C83.5737 48.36 83.36 48.5737 83.36 48.84V52.2H76.64V48.84C76.64 48.5737 76.4244 48.36 76.16 48.36H72.8V41.64H76.16C76.4244 41.64 76.64 41.4244 76.64 41.16V37.8ZM70.205 49.32H71.555L68.96 51.915V50.565L70.205 49.32ZM72.605 49.32H73.94C73.9269 49.3369 73.925 49.35 73.91 49.365L68.96 54.315V52.965L72.605 49.32ZM75.005 49.32H75.68V49.995L69.635 56.04H68.96V55.365L75.005 49.32ZM75.68 51.075V52.395L72.035 56.04H70.7C70.7131 56.0231 70.715 56.01 70.73 55.995L75.575 51.135C75.605 51.105 75.6463 51.0956 75.68 51.075ZM75.68 53.445V54.795L74.435 56.04H73.1C73.1131 56.0231 73.115 56.01 73.13 55.995L75.68 53.445Z" fill="#D7F2F7"/>
</svg>
