<svg width="128" height="128" viewBox="0 0 128 128" fill="none" xmlns="http://www.w3.org/2000/svg">
<rect width="128" height="128" fill="#354D62"/>
<path fill-rule="evenodd" clip-rule="evenodd" d="M17.92 16C16.8625 16 16 16.8625 16 17.92V48.64C16 49.6975 16.8625 50.56 17.92 50.56H31.36V77.44H17.92C16.8625 77.44 16 78.295 16 79.36V110.08C16 111.145 16.8625 112 17.92 112H48.64C49.6975 112 50.56 111.145 50.56 110.08V96.64H77.44V110.08C77.44 111.145 78.295 112 79.36 112H110.08C111.145 112 112 111.145 112 110.08V79.36C112 78.295 111.145 77.44 110.08 77.44H96.64V50.56H110.08C111.145 50.56 112 49.6975 112 48.64V17.92C112 16.8625 111.145 16 110.08 16H79.36C78.295 16 77.44 16.8625 77.44 17.92V31.36H50.56V17.92C50.56 16.8625 49.6975 16 48.64 16H17.92ZM50.56 35.2H77.44V48.64C77.44 49.6975 78.295 50.56 79.36 50.56H92.8V77.44H79.36C78.295 77.44 77.44 78.295 77.44 79.36V92.8H50.56V79.36C50.56 78.295 49.6975 77.44 48.64 77.44H35.2V50.56H48.64C49.6975 50.56 50.56 49.6975 50.56 48.64V35.2ZM24.82 81.28H30.22L19.84 91.66V86.26L24.82 81.28ZM34.42 81.28H39.76C39.7075 81.3475 39.7 81.4 39.64 81.46L19.84 101.26V95.86L34.42 81.28ZM44.02 81.28H46.72V83.98L22.54 108.16H19.84V105.46L44.02 81.28ZM46.72 88.3V93.58L32.14 108.16H26.8C26.8525 108.092 26.86 108.04 26.92 107.98L46.3 88.54C46.42 88.42 46.585 88.3825 46.72 88.3ZM46.72 97.78V103.18L41.74 108.16H36.4C36.4525 108.092 36.46 108.04 36.52 107.98L46.72 97.78Z" fill="#D7F2F7"/>
</svg>
