<?xml version="1.0" standalone="no"?>
<!DOCTYPE svg PUBLIC "-//W3C//DTD SVG 20010904//EN"
 "http://www.w3.org/TR/2001/REC-SVG-20010904/DTD/svg10.dtd">
<svg version="1.0" xmlns="http://www.w3.org/2000/svg"
 width="700.000000pt" height="700.000000pt" viewBox="0 0 700.000000 700.000000"
 preserveAspectRatio="xMidYMid meet">
<metadata>
Created by potrace 1.14, written by Peter Selinger 2001-2017
</metadata>
<g transform="translate(0.000000,700.000000) scale(0.100000,-0.100000)"
fill="#000000" stroke="none">
<path d="M0 3500 l0 -3500 3500 0 3500 0 0 3500 0 3500 -3500 0 -3500 0 0
-3500z m2727 2596 l28 -24 5 -394 5 -393 735 0 735 0 5 393 5 394 28 24 28 24
880 0 881 0 29 -29 29 -29 0 -880 c0 -871 0 -880 -20 -905 -12 -15 -38 -31
-58 -37 -22 -6 -182 -10 -400 -10 l-362 0 2 -732 3 -733 393 -5 394 -5 24 -28
24 -28 0 -878 c0 -870 0 -879 -20 -904 -12 -15 -38 -31 -58 -37 -51 -14 -1673
-14 -1724 0 -20 6 -46 22 -58 37 -19 25 -20 38 -20 409 l0 384 -740 0 -740 0
0 -384 c0 -371 -1 -384 -20 -409 -12 -15 -38 -31 -58 -37 -51 -14 -1673 -14
-1724 0 -20 6 -46 22 -58 37 -20 25 -20 34 -20 904 l0 878 24 28 24 28 394 5
393 5 3 733 2 732 -362 0 c-218 0 -378 4 -400 10 -20 6 -46 22 -58 37 -20 25
-20 34 -20 905 l0 880 29 29 29 29 881 0 880 0 28 -24z"/>
<path d="M2760 4686 c0 -371 -1 -384 -20 -409 -12 -15 -38 -31 -58 -37 -22 -6
-182 -10 -400 -10 l-362 0 2 -732 3 -733 392 -5 c392 -5 392 -5 415 -28 23
-23 23 -23 28 -415 l5 -392 735 0 735 0 5 392 c5 392 5 392 28 415 23 23 23
23 415 28 l392 5 3 733 2 732 -362 0 c-218 0 -378 4 -400 10 -20 6 -46 22 -58
37 -19 25 -20 38 -20 409 l0 384 -740 0 -740 0 0 -384z"/>
<path d="M1217 2412 l-137 -137 0 -138 c0 -75 3 -137 8 -137 4 0 131 124 282
275 l275 275 -145 0 -145 0 -138 -138z"/>
<path d="M1477 2152 l-397 -398 0 -142 c0 -78 3 -142 8 -142 4 0 250 243 547
540 l540 540 -150 0 -150 0 -398 -398z"/>
<path d="M1742 1887 l-663 -663 3 -70 3 -69 69 -3 70 -3 668 668 668 668 0 67
0 68 -78 0 -77 0 -663 -663z"/>
<path d="M2007 1632 c-295 -295 -537 -540 -537 -545 0 -4 64 -7 143 -7 l142 0
403 403 402 403 0 136 c0 75 -4 139 -8 142 -5 3 -250 -237 -545 -532z"/>
<path d="M2272 1367 c-149 -149 -272 -275 -272 -280 0 -4 62 -7 138 -7 l137 0
143 143 142 142 0 138 c0 75 -3 137 -8 137 -4 0 -130 -123 -280 -273z"/>
</g>
</svg>
