<svg height="512" viewBox="0 0 128 128" width="512" xmlns="http://www.w3.org/2000/svg"><path d="m122.75 47.872a42.622 42.622 0 0 0 -84.211-9.324 42.618 42.618 0 1 0 50.913 50.912 42.674 42.674 0 0 0 33.298-41.588zm-13.758 26.389-6.286-6.286a30.04 30.04 0 0 0 7.549-18.353h8.956a39.125 39.125 0 0 1 -10.219 24.639zm-32.262 32.251-6.318-6.318a30.073 30.073 0 0 0 7.6-18.316h8.938a38.972 38.972 0 0 1 -10.22 24.634zm-67.936-24.634h8.935a30.073 30.073 0 0 0 7.6 18.316l-6.319 6.317a38.972 38.972 0 0 1 -10.216-24.633zm10.219-28.134 6.319 6.319a30.068 30.068 0 0 0 -7.6 18.315h-8.938a38.977 38.977 0 0 1 10.219-24.634zm27.109-12.694v8.936a30.064 30.064 0 0 0 -18.316 7.6l-6.318-6.316a38.97 38.97 0 0 1 24.634-10.22zm28.134 10.219-6.318 6.319a30.064 30.064 0 0 0 -18.316-7.6v-8.938a38.977 38.977 0 0 1 24.634 10.219zm12.694 27.109h-8.935a30.068 30.068 0 0 0 -7.6-18.315l6.318-6.319a38.97 38.97 0 0 1 10.217 24.634zm-39.078 28.447a26.7 26.7 0 1 1 26.7-26.7 26.727 26.727 0 0 1 -26.7 26.7zm-20.066-4.157a30.071 30.071 0 0 0 18.316 7.6v8.935a38.97 38.97 0 0 1 -24.634-10.22zm21.816 7.6a30.071 30.071 0 0 0 18.316-7.6l6.318 6.319a38.977 38.977 0 0 1 -24.634 10.219zm5.634-72.112a26.7 26.7 0 1 1 34.585 34.588 42.72 42.72 0 0 0 -34.585-34.585zm63.95 7.963h-8.935a30.073 30.073 0 0 0 -7.6-18.316l6.319-6.317a38.972 38.972 0 0 1 10.216 24.636zm-19.012-20.79a30.073 30.073 0 0 0 -18.316-7.6v-8.935a38.972 38.972 0 0 1 24.634 10.22zm-21.816-7.584a30.04 30.04 0 0 0 -18.353 7.549l-6.286-6.286a39.125 39.125 0 0 1 24.639-10.219zm-27.115 3.736 6.3 6.3a30.207 30.207 0 0 0 -5.845 9.909c-1.267-.114-2.547-.182-3.844-.182a42.65 42.65 0 0 0 -5.57.376 38.863 38.863 0 0 1 8.959-16.403zm39.231 58.647c0-1.3-.068-2.577-.182-3.845a30.164 30.164 0 0 0 9.909-5.843l6.3 6.3a38.884 38.884 0 0 1 -16.4 8.961 42.662 42.662 0 0 0 .373-5.573z"/></svg>