<?xml version="1.0" encoding="UTF-8"?>
<svg xmlns="http://www.w3.org/2000/svg" width="512" height="512" viewBox="0 0 128 128"><g><path d="M32.212,62.012a5.473,5.473,0,0,0,6.423,4.09,3.308,3.308,0,0,1,3.973,2.92l.66,6.873a1.75,1.75,0,0,0,.671,1.218c.276.214,6.922,5.238,20.061,5.238s19.785-5.024,20.061-5.238a1.75,1.75,0,0,0,.671-1.218l.66-6.873a3.308,3.308,0,0,1,3.973-2.92,5.479,5.479,0,0,0,6.423-4.09l1.519-6.5a10.638,10.638,0,0,0-.564-6.556,19.4,19.4,0,0,1-.977-10.476c.939-6.206-.2-16.047-6.481-23.356C83.65,8.572,75.143,5.25,64,5.25S44.35,8.572,38.715,15.123c-6.286,7.309-7.42,17.15-6.481,23.356a19.4,19.4,0,0,1-.977,10.476,10.638,10.638,0,0,0-.564,6.556Zm2.275-11.707A22.883,22.883,0,0,0,35.7,37.956c-.828-5.474.16-14.141,5.674-20.551C46.309,11.662,53.923,8.75,64,8.75s17.691,2.912,22.631,8.655c5.514,6.41,6.5,15.077,5.674,20.551a22.883,22.883,0,0,0,1.208,12.349,7.153,7.153,0,0,1,.385,4.41l-1.519,6.5a1.957,1.957,0,0,1-2.294,1.461,6.807,6.807,0,0,0-8.177,6.011l-.581,6.053a21.087,21.087,0,0,1-2.917,1.478v-2.7a1.75,1.75,0,0,0-3.5,0v3.913c-.865.244-1.8.474-2.83.673V74.958a1.75,1.75,0,0,0-3.5,0v3.657c-.9.093-1.837.166-2.83.2V75.39a1.75,1.75,0,1,0-3.5,0v3.428c-.992-.038-1.929-.112-2.83-.206V74.958a1.75,1.75,0,0,0-3.5,0V78.1c-1.026-.2-1.964-.432-2.83-.678v-3.9a1.75,1.75,0,0,0-3.5,0V76.2a21.692,21.692,0,0,1-2.918-1.469l-.58-6.047a6.807,6.807,0,0,0-8.177-6.011,1.957,1.957,0,0,1-2.294-1.461l-1.519-6.5A7.153,7.153,0,0,1,34.487,50.305Z"/><path d="M46.554,53.933a18.138,18.138,0,0,0,2.856.23A13.274,13.274,0,0,0,58.2,51.215C59.86,49.753,61.8,47,61.642,42.2a7.174,7.174,0,0,0-2.376-5.287c-3.1-2.806-8.588-3.07-12.638-2.794a8.056,8.056,0,0,0-7.4,6.866C38.435,46.533,40.391,52.952,46.554,53.933ZM42.69,41.479a4.541,4.541,0,0,1,4.174-3.868q1.172-.078,2.244-.079c3.648,0,6.38.683,7.811,1.977a3.748,3.748,0,0,1,1.225,2.807c.091,2.762-.668,4.873-2.257,6.275-2.325,2.052-6.06,2.322-8.782,1.886C42.7,49.775,42.29,44.284,42.69,41.479Z"/><path d="M69.8,51.215a13.264,13.264,0,0,0,8.793,2.948,18.147,18.147,0,0,0,2.856-.23c6.163-.981,8.119-7.4,7.329-12.948a8.056,8.056,0,0,0-7.4-6.866c-4.053-.275-9.535-.012-12.638,2.794A7.174,7.174,0,0,0,66.358,42.2C66.2,47,68.14,49.753,69.8,51.215Zm1.284-11.706c1.431-1.294,4.163-1.977,7.811-1.977q1.071,0,2.244.079a4.541,4.541,0,0,1,4.174,3.868c.4,2.805-.009,8.3-4.415,9-2.719.434-6.457.167-8.782-1.886-1.589-1.4-2.348-3.513-2.257-6.275A3.748,3.748,0,0,1,71.081,39.509Z"/><path d="M60.5,52.724a45.344,45.344,0,0,0-3.558,5.2,4.4,4.4,0,0,0,.722,5.349A4.893,4.893,0,0,0,64,63.9a5.473,5.473,0,0,0,2.865.877,4.965,4.965,0,0,0,3.476-1.51,4.394,4.394,0,0,0,.721-5.343,45.359,45.359,0,0,0-3.56-5.2,4.434,4.434,0,0,0-7,0ZM64,54.509a.915.915,0,0,1,.735.358,42.486,42.486,0,0,1,3.283,4.785.912.912,0,0,1-.1,1.094c-.553.532-1.266.988-2.75-.333a1.75,1.75,0,0,0-2.328,0c-1.482,1.32-2.2.865-2.748.334a.91.91,0,0,1-.1-1.1,42.4,42.4,0,0,1,3.28-4.782A.916.916,0,0,1,64,54.509Z"/><path d="M100.48,101.553a7.016,7.016,0,0,0-8.315,2.411L79.5,98.845l12.67-5.119a7,7,0,1,0,9.363-10.044,7,7,0,1,0-13.715-.719L64,92.584,40.185,82.963a7,7,0,1,0-13.714.719,7,7,0,1,0,9.362,10.044L48.5,98.845l-12.669,5.119a7,7,0,0,0-12.185,6.7,6.945,6.945,0,0,0,2.821,3.339,7,7,0,1,0,13.715.719L64,105.106l23.816,9.622a7,7,0,0,0,13.423,3.641,6.941,6.941,0,0,0,.29-4.361,7,7,0,0,0-1.049-12.455Zm-9.908-15.93a1.785,1.785,0,0,0,.944-.983,1.837,1.837,0,0,0-.018-1.384,3.5,3.5,0,1,1,6.267.454A1.751,1.751,0,0,0,98.8,86.277a3.5,3.5,0,1,1-4.166,4.754c-.01-.033-.037-.11-.05-.143A1.748,1.748,0,0,0,92.3,89.9l-17.475,7.06-6.153-2.486ZM37.428,112.066a1.79,1.79,0,0,0-.944.984,1.837,1.837,0,0,0,.018,1.384,3.5,3.5,0,1,1-6.267-.454,1.751,1.751,0,0,0-1.037-2.567,3.5,3.5,0,1,1,4.165-4.755c.01.031.035.105.047.135a1.751,1.751,0,0,0,2.291,1l17.475-7.06,6.152,2.485Zm63.677-2.709a3.481,3.481,0,0,1-2.3,2.056,1.751,1.751,0,0,0-1.037,2.567,3.5,3.5,0,1,1-6.3.52c.015-.031.048-.1.061-.134a1.75,1.75,0,0,0-.958-2.3L35.7,89.9a1.582,1.582,0,0,0-.6-.113,1.954,1.954,0,0,0-.766.163,1.836,1.836,0,0,0-.948,1.009,3.5,3.5,0,1,1-4.193-4.68,1.751,1.751,0,0,0,1.037-2.567,3.5,3.5,0,1,1,6.3-.52c-.015.031-.048.1-.061.134a1.749,1.749,0,0,0,.958,2.3L92.3,107.793a1.751,1.751,0,0,0,2.291-1c.007-.019.022-.061.034-.1a3.5,3.5,0,0,1,6.481,2.66Z"/></g></svg>
