<svg height="512" viewBox="0 0 128 128" width="512" xmlns="http://www.w3.org/2000/svg"><g><path d="m106.276 110.556-13.565-37.27a40.093 40.093 0 1 0 -57.422 0l-13.565 37.27a1.749 1.749 0 0 0 2.383 2.184l16.863-7.862 7.862 16.861a1.75 1.75 0 0 0 3.23-.14l11.938-32.799 11.937 32.8a1.75 1.75 0 0 0 1.569 1.149h.076a1.751 1.751 0 0 0 1.586-1.011l7.862-16.861 16.863 7.862a1.749 1.749 0 0 0 2.383-2.184zm-42.276-101.806a36.593 36.593 0 1 1 -36.593 36.593 36.634 36.634 0 0 1 36.593-36.593zm-25.931 67.134a40.193 40.193 0 0 0 9.416 5.977l-7.065 19.412-13.962 6.51zm12.15 40.548-6.51-13.961 7.025-19.3a39.805 39.805 0 0 0 10.8 2.182zm27.562 0-11.312-31.081a39.813 39.813 0 0 0 10.8-2.182l7.025 19.3zm9.8-15.159-7.066-19.412a40.193 40.193 0 0 0 9.416-5.977l11.611 31.9z"/><path d="m64 75.3a29.955 29.955 0 1 0 -29.955-29.957 29.988 29.988 0 0 0 29.955 29.957zm0-56.409a26.455 26.455 0 1 1 -26.455 26.452 26.485 26.485 0 0 1 26.455-26.455z"/><path d="m51.084 60.581a1.75 1.75 0 0 0 2.539 1.845l10.377-5.455 10.377 5.455a1.75 1.75 0 0 0 2.539-1.845l-1.982-11.555 8.395-8.183a1.751 1.751 0 0 0 -.97-2.985l-11.6-1.686-5.19-10.513a1.75 1.75 0 0 0 -3.138 0l-5.189 10.513-11.6 1.686a1.75 1.75 0 0 0 -.97 2.985l8.4 8.183zm-1.432-19.77 9-1.308a1.747 1.747 0 0 0 1.318-.957l4.03-8.158 4.026 8.158a1.747 1.747 0 0 0 1.318.957l9 1.308-6.515 6.351a1.75 1.75 0 0 0 -.5 1.549l1.538 8.967-8.053-4.234a1.751 1.751 0 0 0 -1.629 0l-8.052 4.234 1.538-8.967a1.75 1.75 0 0 0 -.5-1.549z"/></g></svg>